<svg width="700" height="700" viewBox="0 0 700 700" fill="none" xmlns="http://www.w3.org/2000/svg">
<g clip-path="url(#clip0_2056_2)">
<rect width="700" height="700" rx="350" fill="#C9E8EB"/>
<g clip-path="url(#clip1_2056_2)">
<path d="M593.125 225.391L441.016 150C425.313 171.719 390.547 186.875 350 186.875C309.453 186.875 274.688 171.719 258.984 150L106.875 225.391C100.703 228.516 98.2031 236.016 101.25 242.188L145.938 331.641C149.063 337.813 156.563 340.313 162.734 337.266L206.953 315.625C215.234 311.563 224.922 317.578 224.922 326.875V525C224.922 538.828 236.094 550 249.922 550H449.922C463.75 550 474.922 538.828 474.922 525V326.797C474.922 317.578 484.609 311.484 492.891 315.547L537.109 337.188C543.281 340.313 550.781 337.813 553.906 331.563L598.672 242.188C601.797 236.016 599.297 228.438 593.125 225.391Z" fill="white"/>
</g>
</g>
<defs>
<clipPath id="clip0_2056_2">
<rect width="700" height="700" fill="white"/>
</clipPath>
<clipPath id="clip1_2056_2">
<rect width="500" height="500" fill="white" transform="translate(100 100)"/>
</clipPath>
</defs>
</svg>
